<svg width="48" height="48" viewBox="0 0 48 48" fill="none" xmlns="http://www.w3.org/2000/svg">
<path d="M44.0352 21.9938C43.348 21.0816 40.7952 20.4534 39.7152 18.8119C38.6352 17.1703 37.7511 13.6153 35.0024 12.2494C32.2536 10.8834 26.9999 10.5 23.9999 10.5C20.9999 10.5 15.7499 10.875 12.9974 12.2466C10.2449 13.6181 9.36454 17.1703 8.28454 18.8091C7.20454 20.4478 4.65173 21.0816 3.96454 21.9938C3.27736 22.9059 2.79361 28.6725 3.08798 31.5C3.38236 34.3275 3.93173 36 3.93173 36H11.9942C13.3142 36 13.7436 35.5041 16.4436 35.25C19.4061 34.9688 22.3124 34.875 23.9999 34.875C25.6874 34.875 28.6874 34.9688 31.648 35.25C34.348 35.5059 34.7914 36 36.0974 36H44.0661C44.0661 36 44.6155 34.3275 44.9099 31.5C45.2042 28.6725 44.7186 22.9059 44.0352 21.9938Z" stroke="white" stroke-linecap="round" stroke-linejoin="round"/>
<path d="M37.5 36H42.75V37.5H37.5V36Z" stroke="white" stroke-linecap="round" stroke-linejoin="round"/>
<path d="M5.25 36H10.5V37.5H5.25V36Z" stroke="white" stroke-linecap="round" stroke-linejoin="round"/>
<path d="M34.169 28.9838C33.615 28.3434 31.8094 27.8091 29.4187 27.4509C27.0281 27.0928 26.1562 27 24.0187 27C21.8812 27 20.909 27.1537 18.6178 27.4509C16.3265 27.7481 14.6062 28.2769 13.8684 28.9838C12.7612 30.0563 14.3831 31.26 15.6562 31.4063C16.89 31.5469 19.3565 31.4953 24.029 31.4953C28.7015 31.4953 31.1681 31.5469 32.4019 31.4063C33.6731 31.2516 35.1787 30.1313 34.169 28.9838Z" fill="white"/>
<path d="M40.4596 22.7859C40.4544 22.7114 40.4218 22.6415 40.3682 22.5896C40.3145 22.5377 40.2436 22.5074 40.169 22.5046C39.0618 22.4652 37.9378 22.544 35.9437 23.1318C34.9264 23.4288 33.971 23.9071 33.1237 24.5437C32.91 24.7106 32.9859 25.1615 33.254 25.2093C34.8976 25.4021 36.551 25.4991 38.2059 25.4999C39.1987 25.4999 40.2234 25.2187 40.4137 24.3337C40.5107 23.8234 40.5262 23.301 40.4596 22.7859V22.7859Z" fill="white"/>
<path d="M7.54046 22.7859C7.54572 22.7114 7.5783 22.6415 7.63194 22.5896C7.68558 22.5377 7.7565 22.5074 7.83109 22.5046C8.93827 22.4652 10.0623 22.544 12.0564 23.1318C13.0737 23.4288 14.0291 23.9071 14.8764 24.5437C15.0901 24.7106 15.0142 25.1615 14.7461 25.2093C13.1025 25.4021 11.4491 25.4991 9.79421 25.4999C8.8014 25.4999 7.77671 25.2187 7.5864 24.3337C7.48937 23.8234 7.47387 23.301 7.54046 22.7859V22.7859Z" fill="white"/>
<path d="M40.5 18H42" stroke="white" stroke-linecap="round" stroke-linejoin="round"/>
<path d="M6 18H7.5" stroke="white" stroke-linecap="round" stroke-linejoin="round"/>
<path d="M7.3125 19.7812C7.3125 19.7812 11.6578 18.6562 24 18.6562C36.3422 18.6562 40.6875 19.7812 40.6875 19.7812" stroke="white" stroke-linecap="round" stroke-linejoin="round"/>
</svg>
