<?xml version="1.0" encoding="UTF-8"?>
<!DOCTYPE svg PUBLIC "-//W3C//DTD SVG 1.1//EN" "http://www.w3.org/Graphics/SVG/1.1/DTD/svg11.dtd">
<svg xmlns="http://www.w3.org/2000/svg" version="1.1" width="449px" height="93px" style="shape-rendering:geometricPrecision; text-rendering:geometricPrecision; image-rendering:optimizeQuality; fill-rule:evenodd; clip-rule:evenodd" xmlns:xlink="http://www.w3.org/1999/xlink">
<g><path style="opacity:0.944" fill="#016464" d="M 173.5,5.5 C 194.376,2.59438 208.376,10.9277 215.5,30.5C 209.528,31.6636 203.528,31.8303 197.5,31C 192.351,22.3944 185.018,19.7278 175.5,23C 163.932,31.2525 162.932,40.5859 172.5,51C 184.284,56.8897 192.95,53.8897 198.5,42C 204.157,41.5006 209.824,41.3339 215.5,41.5C 213.523,54.955 206.19,64.1217 193.5,69C 172.872,73.9357 158.372,66.769 150,47.5C 146.156,26.8471 153.989,12.8471 173.5,5.5 Z"/></g>
<g><path style="opacity:0.946" fill="#016464" d="M 334.5,5.5 C 350.158,2.98957 362.658,7.98957 372,20.5C 374.076,23.8931 375.242,27.5598 375.5,31.5C 369.463,31.8293 363.463,31.4959 357.5,30.5C 351.038,20.8267 342.704,18.9934 332.5,25C 324.023,34.6654 324.69,43.6654 334.5,52C 341.321,55.6332 347.654,54.9665 353.5,50C 349.179,49.501 344.846,49.3343 340.5,49.5C 340.5,45.1667 340.5,40.8333 340.5,36.5C 352.5,36.5 364.5,36.5 376.5,36.5C 375.938,53.9013 367.272,65.068 350.5,70C 331.937,72.6369 318.77,65.4702 311,48.5C 306.689,27.3556 314.522,13.0223 334.5,5.5 Z"/></g>
<g><path style="opacity:0.949" fill="#016464" d="M 448.5,30.5 C 448.5,35.5 448.5,40.5 448.5,45.5C 438.399,68.8699 421.399,75.7032 397.5,66C 380.838,53.515 377.338,38.015 387,19.5C 399.943,4.5076 415.443,1.34094 433.5,10C 440.846,15.2211 445.846,22.0544 448.5,30.5 Z M 410.5,21.5 C 426.656,21.1474 433.156,28.8141 430,44.5C 420.108,57.8003 410.108,57.8003 400,44.5C 397.005,33.8258 400.505,26.1591 410.5,21.5 Z"/></g>
<g><path style="opacity:0.98" fill="#716f7c" d="M -0.5,27.5 C -0.5,25.8333 -0.5,24.1667 -0.5,22.5C 14.1667,22.5 28.8333,22.5 43.5,22.5C 43.5,21.5 43.5,20.5 43.5,19.5C 35.5,19.5 27.5,19.5 19.5,19.5C 19.5,17.8333 19.5,16.1667 19.5,14.5C 34.837,14.3334 50.1703,14.5001 65.5,15C 74.1667,20.3333 82.8333,25.6667 91.5,31C 99.3817,33.6841 107.382,35.8507 115.5,37.5C 115.5,39.1667 115.5,40.8333 115.5,42.5C 116.833,42.5 118.167,42.5 119.5,42.5C 119.5,46.8333 119.5,51.1667 119.5,55.5C 118.167,55.5 116.833,55.5 115.5,55.5C 115.5,56.8333 115.5,58.1667 115.5,59.5C 111.167,59.5 106.833,59.5 102.5,59.5C 101.293,48.8932 95.6266,45.3932 85.5,49C 82.211,51.581 80.211,54.9143 79.5,59C 68.8177,59.8324 58.1511,59.6657 47.5,58.5C 43.034,46.3878 35.8673,44.3878 26,52.5C 24.7978,54.6775 24.2978,57.0108 24.5,59.5C 18.8333,59.5 13.1667,59.5 7.5,59.5C 7.5,57.8333 7.5,56.1667 7.5,54.5C 11.5,54.5 15.5,54.5 19.5,54.5C 19.5,53.1667 19.5,51.8333 19.5,50.5C 20.8333,50.5 22.1667,50.5 23.5,50.5C 23.5,49.5 23.5,48.5 23.5,47.5C 16.8333,47.5 10.1667,47.5 3.5,47.5C 3.5,45.8333 3.5,44.1667 3.5,42.5C 8.83333,42.5 14.1667,42.5 19.5,42.5C 19.5,41.1667 19.5,39.8333 19.5,38.5C 22.1667,38.5 24.8333,38.5 27.5,38.5C 27.5,37.5 27.5,36.5 27.5,35.5C 20.8333,35.5 14.1667,35.5 7.5,35.5C 7.5,33.8333 7.5,32.1667 7.5,30.5C 20.8333,30.5 34.1667,30.5 47.5,30.5C 47.5,29.5 47.5,28.5 47.5,27.5C 31.5,27.5 15.5,27.5 -0.5,27.5 Z"/></g>
<g><path style="opacity:0.936" fill="#016464" d="M 243.5,21.5 C 252.379,23.1356 261.379,23.4689 270.5,22.5C 270.5,38.1667 270.5,53.8333 270.5,69.5C 265.261,70.0367 260.261,69.37 255.5,67.5C 236.077,72.3989 224.41,65.0655 220.5,45.5C 222.108,31.5608 229.775,23.5608 243.5,21.5 Z M 241.5,35.5 C 251.32,34.4934 256.154,38.8268 256,48.5C 249.709,58.5836 243.043,58.9169 236,49.5C 234.177,43.4789 236.01,38.8122 241.5,35.5 Z"/></g>
<g><path style="opacity:0.921" fill="#006565" d="M 293.5,21.5 C 297.167,21.5 300.833,21.5 304.5,21.5C 303.8,25.7978 303.467,30.1311 303.5,34.5C 297.318,33.7192 292.818,36.0526 290,41.5C 289.5,50.8274 289.334,60.1607 289.5,69.5C 284.833,69.5 280.167,69.5 275.5,69.5C 275.5,53.8333 275.5,38.1667 275.5,22.5C 280.43,22.1975 285.263,22.5308 290,23.5C 291.302,22.9152 292.469,22.2485 293.5,21.5 Z"/></g>
<g><path style="opacity:0.964" fill="#716f7c" d="M 31.5,50.5 C 38.6216,48.8852 42.9549,51.5518 44.5,58.5C 42.9515,65.6124 38.6182,68.1124 31.5,66C 26.1985,60.8808 26.1985,55.7141 31.5,50.5 Z"/></g>
<g><path style="opacity:0.962" fill="#716f7c" d="M 87.5,50.5 C 98.5587,50.0542 101.892,54.8875 97.5,65C 86.9641,68.997 82.4641,65.497 84,54.5C 84.6897,52.6498 85.8564,51.3164 87.5,50.5 Z"/></g>
<g><path style="opacity:0.829" fill="#b68d8b" d="M 186.5,92.5 C 183.833,92.5 181.167,92.5 178.5,92.5C 178.381,89.2818 178.881,85.9485 180,82.5C 189.882,80.7637 192.049,84.097 186.5,92.5 Z"/></g>
<g><path style="opacity:0.843" fill="#b68d8b" d="M 206.5,92.5 C 204.833,92.5 203.167,92.5 201.5,92.5C 201.167,91.1667 200.833,91.1667 200.5,92.5C 198.833,92.5 197.167,92.5 195.5,92.5C 196.137,89.544 196.637,86.544 197,83.5C 199.376,81.2559 202.043,80.9226 205,82.5C 205.743,84.4406 205.576,86.2739 204.5,88C 205.582,89.3297 206.249,90.8297 206.5,92.5 Z"/></g>
<g><path style="opacity:0.768" fill="#b68d8b" d="M 217.5,92.5 C 215.833,92.5 214.167,92.5 212.5,92.5C 213.349,88.8987 214.016,85.232 214.5,81.5C 215.833,81.5 217.167,81.5 218.5,81.5C 217.634,85.2064 217.301,88.873 217.5,92.5 Z"/></g>
<g><path style="opacity:0.8" fill="#b58d8b" d="M 232.5,92.5 C 230.833,92.5 229.167,92.5 227.5,92.5C 227.218,89.0903 226.551,85.757 225.5,82.5C 227.045,81.5481 228.712,81.2148 230.5,81.5C 230.459,85.2434 231.126,85.4101 232.5,82C 233.944,81.2195 235.277,81.3861 236.5,82.5C 234.964,85.7775 233.631,89.1109 232.5,92.5 Z"/></g>
<g><path style="opacity:0.771" fill="#b78f8d" d="M 246.5,92.5 C 244.833,92.5 243.167,92.5 241.5,92.5C 241.136,89.2175 241.636,85.8842 243,82.5C 244.356,81.6198 245.856,81.2865 247.5,81.5C 246.756,85.1185 246.423,88.7852 246.5,92.5 Z"/></g>
<g><path style="opacity:0.814" fill="#b78f8d" d="M 263.5,92.5 C 262.167,92.5 260.833,92.5 259.5,92.5C 258.833,91.1667 258.167,91.1667 257.5,92.5C 256.167,92.5 254.833,92.5 253.5,92.5C 254.074,89.1541 254.74,85.8208 255.5,82.5C 258.833,81.1667 262.167,81.1667 265.5,82.5C 264.74,85.8208 264.074,89.1541 263.5,92.5 Z"/></g>
<g><path style="opacity:0.84" fill="#b58c8a" d="M 280.5,92.5 C 277.833,92.5 275.167,92.5 272.5,92.5C 269.461,86.5762 271.295,82.9096 278,81.5C 279.627,81.6251 281.127,82.1251 282.5,83C 281.793,86.1612 281.126,89.3278 280.5,92.5 Z"/></g>
<g><path style="opacity:0.812" fill="#b68c8a" d="M 309.5,92.5 C 307.167,92.5 304.833,92.5 302.5,92.5C 301.63,90.9681 301.964,89.4681 303.5,88C 302.177,83.8001 303.844,81.6334 308.5,81.5C 312.77,81.58 313.437,83.08 310.5,86C 311.856,88.4141 311.522,90.5807 309.5,92.5 Z"/></g>
<g><path style="opacity:0.807" fill="#b68c8a" d="M 326.5,92.5 C 324.167,92.5 321.833,92.5 319.5,92.5C 318.343,88.8828 318.343,85.2161 319.5,81.5C 320.833,81.5 322.167,81.5 323.5,81.5C 323.833,86.8333 324.167,86.8333 324.5,81.5C 326.288,81.2148 327.955,81.5481 329.5,82.5C 328.922,85.9961 327.922,89.3294 326.5,92.5 Z"/></g>
<g><path style="opacity:0.793" fill="#b58d8a" d="M 344.5,92.5 C 342.167,92.5 339.833,92.5 337.5,92.5C 333.545,84.9425 335.879,81.4425 344.5,82C 345.38,83.3561 345.714,84.8561 345.5,86.5C 344.07,86.5792 342.736,86.2458 341.5,85.5C 339.185,86.4211 339.018,87.7544 341,89.5C 342.388,88.4464 343.888,88.2797 345.5,89C 344.663,90.0113 344.33,91.1779 344.5,92.5 Z"/></g>
<g><path style="opacity:0.791" fill="#b88f8d" d="M 360.5,92.5 C 358.167,92.5 355.833,92.5 353.5,92.5C 349.98,84.5686 352.646,80.9019 361.5,81.5C 361.785,83.288 361.452,84.9547 360.5,86.5C 358.657,85.0613 356.99,85.228 355.5,87C 357.376,88.0173 359.376,88.8506 361.5,89.5C 360.873,90.4168 360.539,91.4168 360.5,92.5 Z"/></g>
<g><path style="opacity:0.782" fill="#b68e8c" d="M 375.5,92.5 C 372.833,92.5 370.167,92.5 367.5,92.5C 366.965,88.9605 367.632,85.4605 369.5,82C 372.227,81.1816 374.894,81.3483 377.5,82.5C 376.652,84.4086 376.318,86.4086 376.5,88.5C 371.318,88.5573 371.318,89.224 376.5,90.5C 376.137,91.1835 375.804,91.8501 375.5,92.5 Z"/></g>
<g><path style="opacity:0.793" fill="#b48c8a" d="M 390.5,92.5 C 387.833,92.5 385.167,92.5 382.5,92.5C 382.297,90.6096 382.963,89.1096 384.5,88C 383.446,86.6124 383.28,85.1124 384,83.5C 386.565,81.8207 389.398,81.154 392.5,81.5C 392.773,83.451 392.107,84.951 390.5,86C 393.061,88.1559 393.061,90.3226 390.5,92.5 Z"/></g>
<g><path style="opacity:0.785" fill="#b68d8b" d="M 406.5,92.5 C 403.833,92.5 401.167,92.5 398.5,92.5C 398.804,89.4781 399.304,86.4781 400,83.5C 402.153,81.5561 404.653,81.0561 407.5,82C 408.925,83.7141 408.592,85.0475 406.5,86C 408.773,88.0379 408.773,90.2045 406.5,92.5 Z"/></g>
<g><path style="opacity:0.626" fill="#bd9695" d="M 418.5,92.5 C 417.167,92.5 415.833,92.5 414.5,92.5C 415.048,90.4677 416.381,89.4677 418.5,89.5C 418.5,90.5 418.5,91.5 418.5,92.5 Z"/></g>
</svg>
