<svg width="48" height="48" viewBox="0 0 48 48" fill="none" xmlns="http://www.w3.org/2000/svg">
<path d="M14.25 9.00001C12.27 9.00001 10.506 10.29 9.93748 12.1875L7.87498 19.0785L4.96798 18.0945L4.03198 20.9055L6.98398 21.891L6.04648 25.0785C6.01052 25.216 5.99486 25.358 5.99998 25.5V37.5C5.99998 38.325 6.67498 39 7.49998 39H12L12.516 37.5H35.484L36 39H40.5C41.325 39 42 38.325 42 37.5V36.234C42.006 36.159 42.006 36.0765 42 36V25.5C42.0051 25.358 41.9894 25.216 41.9535 25.0785L41.016 21.891L43.968 20.907L43.0305 18.093L40.125 19.0785L38.0625 12.1875C37.7815 11.2634 37.2103 10.4544 36.4336 9.88033C35.6568 9.30622 34.7159 8.99755 33.75 9.00001H14.25ZM14.25 12H33.75C34.4175 12 35.01 12.4395 35.2035 13.0785L37.125 19.5H10.875L12.7965 13.0785C12.9915 12.4335 13.5825 12 14.25 12V12ZM9.98398 22.5H38.016L39 25.782V34.5H8.99998V25.7805L9.98398 22.5ZM12.75 24C12.1532 24 11.5809 24.2371 11.159 24.659C10.737 25.081 10.5 25.6533 10.5 26.25C10.5 26.8468 10.737 27.419 11.159 27.841C11.5809 28.263 12.1532 28.5 12.75 28.5C13.3467 28.5 13.919 28.263 14.341 27.841C14.7629 27.419 15 26.8468 15 26.25C15 25.6533 14.7629 25.081 14.341 24.659C13.919 24.2371 13.3467 24 12.75 24ZM35.25 24C34.6532 24 34.081 24.2371 33.659 24.659C33.237 25.081 33 25.6533 33 26.25C33 26.8468 33.237 27.419 33.659 27.841C34.081 28.263 34.6532 28.5 35.25 28.5C35.8467 28.5 36.419 28.263 36.841 27.841C37.2629 27.419 37.5 26.8468 37.5 26.25C37.5 25.6533 37.2629 25.081 36.841 24.659C36.419 24.2371 35.8467 24 35.25 24ZM18 28.5L16.125 33H19.359L20.016 31.5H27.984L28.641 33H31.875L30 28.5H18Z" fill="white"/>
</svg>
