<svg width="48" height="48" viewBox="0 0 48 48" fill="none" xmlns="http://www.w3.org/2000/svg">
<path d="M42.82 22.82L25.16 5.16C24.42 4.42 23.4 4 22.34 4H8C5.8 4 4 5.8 4 8V22.34C4 23.4 4.42 24.42 5.18 25.16L22.84 42.82C24.4 44.38 26.94 44.38 28.5 42.82L42.84 28.48C44.4 26.92 44.4 24.4 42.82 22.82ZM25.66 40L8 22.34V8H22.34L40 25.66L25.66 40Z" fill="white"/>
<path d="M13 16C14.6569 16 16 14.6569 16 13C16 11.3431 14.6569 10 13 10C11.3431 10 10 11.3431 10 13C10 14.6569 11.3431 16 13 16Z" fill="white"/>
</svg>
